<svg xmlns="http://www.w3.org/2000/svg" viewBox="0 0 512 512"><linearGradient id="a" gradientUnits="userSpaceOnUse" x1="0" y1="258" x2="512" y2="258" gradientTransform="matrix(1 0 0 -1 0 514)"><stop offset="0" stop-color="#80d8ff"/><stop offset="1" stop-color="#ea80fc"/></linearGradient><path d="M315.409 249.231C345.854 225.711 365.5 188.86 365.5 147.5 365.5 76.645 307.855 19 237 19S108.5 76.645 108.5 147.5c0 41.359 19.646 78.211 50.091 101.731C68.293 280.793 0 367.427 0 473c0 11.046 8.954 20 20 20h434c11.046 0 20-8.954 20-20 0-105.599-68.344-192.225-158.591-223.769zM148.5 147.5c0-48.799 39.701-88.5 88.5-88.5s88.5 39.701 88.5 88.5S285.799 236 237 236s-88.5-39.701-88.5-88.5zM41.008 453C51.061 353.73 135.123 276 237 276s185.939 77.73 195.992 177H41.008zM512 147.5c0 11.046-8.954 20-20 20h-18v18c0 11.046-8.954 20-20 20s-20-8.954-20-20v-18h-18c-11.046 0-20-8.954-20-20s8.954-20 20-20h18v-18c0-11.046 8.954-20 20-20s20 8.954 20 20v18h18c11.046 0 20 8.954 20 20z" fill="url(#a)"/></svg>