<?xml version="1.0" encoding="iso-8859-1"?>
<!-- Generator: Adobe Illustrator 18.1.1, SVG Export Plug-In . SVG Version: 6.00 Build 0)  -->
<svg version="1.1" id="Capa_1" xmlns="http://www.w3.org/2000/svg" xmlns:xlink="http://www.w3.org/1999/xlink" x="0px" y="0px"
	 viewBox="0 0 39.842 39.842" style="enable-background:new 0 0 39.842 39.842;" xml:space="preserve">
<g>
	<path style="fill:#010002;" d="M20.49,27.036c3.735,0,6.773-3.038,6.773-6.773V6.773C27.263,3.038,24.225,0,20.49,0h-1.195
		c-3.733,0-6.771,3.038-6.771,6.773v13.49c0,3.735,3.038,6.773,6.771,6.773H20.49z M13.773,20.262V6.772
		c0-3.046,2.476-5.523,5.521-5.523h1.195c3.046,0,5.523,2.477,5.523,5.523v13.49c0,3.046-2.477,5.523-5.523,5.523h-1.194
		C16.25,25.786,13.773,23.308,13.773,20.262z"/>
	<path style="fill:#010002;" d="M32.289,21.276v-1.455h2.148c0.345,0,0.625-0.28,0.625-0.625v-4.184c0-0.345-0.28-0.625-0.625-0.625
		h-2.744c-0.301,0-0.54,0.217-0.6,0.5h-0.055v6.389c0,5.569-4.532,10.1-10.104,10.1h-2.086c-5.57,0-10.102-4.53-10.102-10.1v-1.553
		c0.012-0.048,0.029-0.093,0.029-0.145v-4.184c0-0.345-0.28-0.625-0.625-0.625H5.404c-0.345,0-0.625,0.28-0.625,0.625v4.184
		c0,0.345,0.28,0.625,0.625,0.625h2.092v1.072c0,5.988,4.667,10.896,10.553,11.31v3.88l-3.401,0.866
		c-0.277,0.071-0.471,0.32-0.471,0.605v1.281c0,0.345,0.28,0.625,0.625,0.625h10.182c0.345,0,0.625-0.28,0.625-0.625v-1.121
		c0-0.282-0.183-0.524-0.456-0.603l-3.419-0.965v-3.943C27.622,32.172,32.289,27.264,32.289,21.276z M32.318,15.637h1.494v2.934
		h-1.494V15.637z M7.498,18.954H6.031V16.02h1.467C7.498,16.02,7.498,18.954,7.498,18.954z M19.301,32.626h1.184v3.725h-1.184
		V32.626z M24.359,38.568v0.024h-8.932v-0.17l3.24-0.824c0.003,0,0.005,0.002,0.008,0.002h2.252L24.359,38.568z"/>
</g>
<g>
</g>
<g>
</g>
<g>
</g>
<g>
</g>
<g>
</g>
<g>
</g>
<g>
</g>
<g>
</g>
<g>
</g>
<g>
</g>
<g>
</g>
<g>
</g>
<g>
</g>
<g>
</g>
<g>
</g>
</svg>
